{
	"asset":{
		"generator":"Khronos glTF Blender I/O v4.2.57",
		"version":"2.0"
	},
	"extensionsUsed":[
		"KHR_materials_specular",
		"KHR_materials_ior"
	],
	"scene":0,
	"scenes":[
		{
			"name":"Scene",
			"nodes":[
				0
			]
		}
	],
	"nodes":[
		{
			"mesh":0,
			"name":"arrow",
			"rotation":[
				0.0023078899830579758,
				0,
				0,
				0.9999973773956299
			]
		}
	],
	"materials":[
		{
			"doubleSided":true,
			"extensions":{
				"KHR_materials_specular":{
					"specularColorFactor":[
						2.0,
						2.0,
						2.0
					]
				},
				"KHR_materials_ior":{
					"ior":1
				}
			},
			"name":"Pink",
			"pbrMetallicRoughness":{
				"baseColorFactor":[
					1,
					0,
					0.5314285755157471,
					1
				],
				"roughnessFactor":0.7763931751251221
			}
		}
	],
	"meshes":[
		{
			"name":"arrow",
			"primitives":[
				{
					"attributes":{
						"POSITION":0,
						"NORMAL":1,
						"TEXCOORD_0":2
					},
					"indices":3,
					"material":0
				}
			]
		}
	],
	"accessors":[
		{
			"bufferView":0,
			"componentType":5126,
			"count":1784,
			"max":[
				-0.009389616549015045,
				0.33679044246673584,
				1.1183205842971802
			],
			"min":[
				-3.05979323387146,
				-0.33679044246673584,
				-1.1183205842971802
			],
			"type":"VEC3"
		},
		{
			"bufferView":1,
			"componentType":5126,
			"count":1784,
			"type":"VEC3"
		},
		{
			"bufferView":2,
			"componentType":5126,
			"count":1784,
			"type":"VEC2"
		},
		{
			"bufferView":3,
			"componentType":5123,
			"count":4212,
			"type":"SCALAR"
		}
	],
	"bufferViews":[
		{
			"buffer":0,
			"byteLength":21408,
			"byteOffset":0,
			"target":34962
		},
		{
			"buffer":0,
			"byteLength":21408,
			"byteOffset":21408,
			"target":34962
		},
		{
			"buffer":0,
			"byteLength":14272,
			"byteOffset":42816,
			"target":34962
		},
		{
			"buffer":0,
			"byteLength":8424,
			"byteOffset":57088,
			"target":34963
		}
	],
	"buffers":[
		{
			"byteLength":65512,
			"uri":"untitled.bin"
		}
	]
}
